<?xml version="1.0" standalone="no"?>
<!DOCTYPE svg PUBLIC "-//W3C//DTD SVG 20010904//EN"
 "http://www.w3.org/TR/2001/REC-SVG-20010904/DTD/svg10.dtd">
<svg version="1.0" xmlns="http://www.w3.org/2000/svg"
 width="558.000000pt" height="558.000000pt" viewBox="0 0 558.000000 558.000000"
 preserveAspectRatio="xMidYMid meet">
<metadata>
Created by potrace 1.14, written by Peter Selinger 2001-2017
</metadata>
<g transform="translate(0.000000,558.000000) scale(0.100000,-0.100000)"
fill="#000000" stroke="none">
<path d="M0 2790 l0 -2790 2790 0 2790 0 0 2790 0 2790 -2790 0 -2790 0 0
-2790z m4150 522 l0 -1257 -680 -680 -680 -680 -680 680 -680 680 0 1257 0
1258 1360 0 1360 0 0 -1258z"/>
<path d="M1730 3227 l0 -1042 530 -530 530 -530 530 530 530 530 0 1042 0
1043 -1060 0 -1060 0 0 -1043z m1815 743 l-150 -150 -227 0 -228 0 0 -198 0
-197 -150 -150 -150 -149 -2 344 -3 345 -230 3 -230 2 -133 133 c-73 72 -138
140 -143 150 -9 16 36 17 893 17 l903 0 -150 -150z m-1055 -752 l0 -453 300
300 300 300 0 153 0 153 153 -3 152 -3 3 -225 2 -224 -115 -116 -115 -115 115
-115 115 -115 0 -329 0 -330 -155 -155 -155 -156 0 410 0 411 -75 74 -75 75
-225 -225 -225 -225 0 -252 c0 -139 -3 -253 -8 -253 -4 0 -74 66 -155 148
l-147 147 0 781 c0 429 3 784 7 787 3 4 73 7 155 7 l148 0 0 -452z m375 -1658
l-75 -75 -75 75 -75 74 0 306 0 305 148 148 147 147 3 -452 2 -453 -75 -75z"/>
</g>
</svg>
